<svg width="254" height="78" viewBox="0 0 254 78" fill="none" xmlns="http://www.w3.org/2000/svg">
<path d="M76.5 51.5C75.6333 51.5 74.95 51.3 74.45 50.9C73.95 50.4667 73.7 49.8833 73.7 49.15C73.7 48.8833 73.7166 48.6667 73.75 48.5L79.05 18.5C79.1833 17.5667 79.6 16.8333 80.3 16.3C81 15.7667 81.85 15.5 82.85 15.5C83.7166 15.5 84.4166 15.7167 84.95 16.15C85.4833 16.5833 85.75 17.1833 85.75 17.95C85.75 18.1833 85.7333 18.3667 85.7 18.5L80.4 48.5C80.2333 49.4333 79.7833 50.1667 79.05 50.7C78.3166 51.2333 77.4666 51.5 76.5 51.5Z" fill="#AEC477"/>
<path d="M90.1238 51.5C89.2238 51.5 88.5404 51.3 88.0738 50.9C87.6071 50.5 87.3738 49.9333 87.3738 49.2C87.3738 48.9 87.3904 48.6667 87.4238 48.5L90.8738 29C91.0071 28.0667 91.3904 27.3333 92.0238 26.8C92.6904 26.2667 93.5238 26 94.5238 26C95.3904 26 96.0571 26.2167 96.5238 26.65C97.0238 27.05 97.2738 27.6333 97.2738 28.4C97.2738 28.6667 97.2571 28.8667 97.2238 29L96.9238 30.45C99.8904 27.4833 103.39 26 107.424 26C110.09 26 112.19 26.7667 113.724 28.3C115.257 29.8333 116.024 31.9167 116.024 34.55C116.024 35.2833 115.94 36.1833 115.774 37.25L113.824 48.5C113.657 49.4333 113.224 50.1667 112.524 50.7C111.824 51.2333 110.974 51.5 109.974 51.5C109.074 51.5 108.39 51.3 107.924 50.9C107.457 50.5 107.224 49.9333 107.224 49.2C107.224 48.9 107.24 48.6667 107.274 48.5L109.224 37.25C109.39 36.35 109.474 35.65 109.474 35.15C109.474 33.8167 109.107 32.8333 108.374 32.2C107.64 31.5333 106.524 31.2 105.024 31.2C102.49 31.2 100.39 31.95 98.7238 33.45C97.0571 34.9167 95.9904 36.9833 95.5238 39.65L93.9738 48.5C93.8071 49.4333 93.3738 50.1667 92.6738 50.7C91.9738 51.2333 91.1238 51.5 90.1238 51.5Z" fill="#AEC477"/>
<path d="M129.366 51.5C128.466 51.5 127.766 51.2833 127.266 50.85C126.8 50.3833 126.566 49.8 126.566 49.1C126.566 48.8333 126.583 48.6333 126.616 48.5L131.416 21.15H121.766C120.933 21.15 120.266 20.9833 119.766 20.65C119.3 20.2833 119.066 19.7833 119.066 19.15C119.066 18.1833 119.4 17.4167 120.066 16.85C120.733 16.2833 121.6 16 122.666 16H148.616C149.483 16 150.15 16.1833 150.616 16.55C151.083 16.8833 151.316 17.3833 151.316 18.05C151.316 18.9833 150.983 19.7333 150.316 20.3C149.65 20.8667 148.783 21.15 147.716 21.15H138.066L133.266 48.5C133.1 49.4 132.65 50.1333 131.916 50.7C131.216 51.2333 130.366 51.5 129.366 51.5Z" fill="#AEC477"/>
<path d="M154.567 51.5C151.6 51.5 149.25 50.7 147.517 49.1C145.817 47.4667 144.967 45.3 144.967 42.6C144.967 41.7333 145.033 40.95 145.167 40.25L147.167 29C147.333 28.0667 147.75 27.3333 148.417 26.8C149.083 26.2667 149.933 26 150.967 26C151.833 26 152.517 26.2167 153.017 26.65C153.517 27.05 153.767 27.6333 153.767 28.4C153.767 28.6667 153.75 28.8667 153.717 29L151.717 40.25C151.617 40.75 151.567 41.25 151.567 41.75C151.567 43.2167 151.983 44.35 152.817 45.15C153.683 45.9167 154.9 46.3 156.467 46.3C158.833 46.3 160.8 45.55 162.367 44.05C163.967 42.55 164.983 40.4833 165.417 37.85L167.017 29C167.183 28.0667 167.6 27.3333 168.267 26.8C168.933 26.2667 169.783 26 170.817 26C171.683 26 172.367 26.2167 172.867 26.65C173.367 27.05 173.617 27.6333 173.617 28.4C173.617 28.6667 173.6 28.8667 173.567 29L170.117 48.5C169.95 49.4667 169.533 50.2167 168.867 50.75C168.233 51.25 167.417 51.5 166.417 51.5C165.55 51.5 164.883 51.3 164.417 50.9C163.95 50.5 163.717 49.9333 163.717 49.2C163.717 48.9 163.733 48.6667 163.767 48.5L164.017 47.05C162.683 48.5833 161.25 49.7167 159.717 50.45C158.217 51.15 156.5 51.5 154.567 51.5Z" fill="#AEC477"/>
<path d="M177.819 51.5C176.919 51.5 176.236 51.3 175.769 50.9C175.302 50.5 175.069 49.9333 175.069 49.2C175.069 48.9 175.086 48.6667 175.119 48.5L178.569 29C178.702 28.0667 179.086 27.3333 179.719 26.8C180.386 26.2667 181.219 26 182.219 26C183.086 26 183.752 26.2167 184.219 26.65C184.719 27.05 184.969 27.6333 184.969 28.4C184.969 28.6667 184.952 28.8667 184.919 29L184.619 30.45C187.586 27.4833 191.086 26 195.119 26C197.786 26 199.886 26.7667 201.419 28.3C202.952 29.8333 203.719 31.9167 203.719 34.55C203.719 35.2833 203.636 36.1833 203.469 37.25L201.519 48.5C201.352 49.4333 200.919 50.1667 200.219 50.7C199.519 51.2333 198.669 51.5 197.669 51.5C196.769 51.5 196.086 51.3 195.619 50.9C195.152 50.5 194.919 49.9333 194.919 49.2C194.919 48.9 194.936 48.6667 194.969 48.5L196.919 37.25C197.086 36.35 197.169 35.65 197.169 35.15C197.169 33.8167 196.802 32.8333 196.069 32.2C195.336 31.5333 194.219 31.2 192.719 31.2C190.186 31.2 188.086 31.95 186.419 33.45C184.752 34.9167 183.686 36.9833 183.219 39.65L181.669 48.5C181.502 49.4333 181.069 50.1667 180.369 50.7C179.669 51.2333 178.819 51.5 177.819 51.5Z" fill="#AEC477"/>
<path d="M219.671 51.45C215.838 51.45 212.805 50.4667 210.571 48.5C208.371 46.5333 207.271 43.85 207.271 40.45C207.271 37.6833 207.955 35.2 209.321 33C210.688 30.8 212.571 29.0833 214.971 27.85C217.371 26.6167 220.088 26 223.121 26C225.488 26 227.605 26.3667 229.471 27.1C231.338 27.8333 232.788 28.8667 233.821 30.2C234.888 31.5 235.421 32.9833 235.421 34.65C235.421 36.55 234.805 38.05 233.571 39.15C232.338 40.25 230.671 40.8 228.571 40.8H213.521C213.488 41.0333 213.471 41.35 213.471 41.75C213.471 43.35 214.038 44.5333 215.171 45.3C216.305 46.0333 218.071 46.4 220.471 46.4C221.838 46.4 223.055 46.2667 224.121 46C225.221 45.7333 226.371 45.3 227.571 44.7C228.805 44.0333 229.721 43.7 230.321 43.7C230.821 43.7 231.288 43.9667 231.721 44.5C232.155 45.0333 232.371 45.5333 232.371 46C232.371 46.7333 231.888 47.4833 230.921 48.25C229.688 49.1833 228.021 49.95 225.921 50.55C223.855 51.15 221.771 51.45 219.671 51.45ZM227.371 36.2C227.905 36.2 228.338 36.05 228.671 35.75C229.038 35.4167 229.221 35 229.221 34.5C229.221 33.4333 228.638 32.6 227.471 32C226.338 31.3667 224.771 31.05 222.771 31.05C220.405 31.05 218.505 31.5 217.071 32.4C215.638 33.3 214.755 34.5667 214.421 36.2H227.371Z" fill="#AEC477"/>
<path d="M55.3297 38.0179L53.6931 47.2995C53.004 51.2074 50.552 54.5795 47.0468 56.4397C41.8305 59.2079 35.3999 58.074 31.4449 53.6887C28.7873 50.7418 27.6365 46.7344 28.3256 42.8265L29.9622 33.5449M38.665 58.3585L37.3678 65.715M15.7575 39.9341L17.3938 30.6524C18.0828 26.7445 20.5347 23.3723 24.0399 21.512C29.2561 18.7437 35.6867 19.8774 39.6418 24.2626C42.2995 27.2094 43.4504 31.2167 42.7614 35.1247L41.1251 44.4063M32.4216 19.593L33.7185 12.2364" stroke="#AEC477" stroke-width="8" stroke-linecap="round"/>
</svg>
